<?xml version="1.0" encoding="utf-8"?>
<!-- Generator: Adobe Illustrator 16.0.0, SVG Export Plug-In . SVG Version: 6.00 Build 0)  -->
<!DOCTYPE svg PUBLIC "-//W3C//DTD SVG 1.1//EN" "http://www.w3.org/Graphics/SVG/1.1/DTD/svg11.dtd">
<svg version="1.1" id="Слой_1" xmlns="http://www.w3.org/2000/svg" xmlns:xlink="http://www.w3.org/1999/xlink" x="0px" y="0px"
	 width="15px" height="15px" viewBox="0 0 15 15" enable-background="new 0 0 15 15" xml:space="preserve">
<g>
	<g>
		<path fill="#BED570" d="M0.703,8.463c1.292,1.266,2.572,2.543,3.838,3.834c0.422,0.43,2.326,2.945,2.707,2.513
			c2.374-2.699,4.229-6.015,6.208-9.009c0.353-0.533,0.03-2.394,0.03-3c0-0.562-0.348-2.52-0.03-3
			c-1.968,2.978-3.888,6.035-6.081,8.853c-0.625,0.804-1.933-1.429-2.485-2C3.517,5.235,2.113,3.845,0.703,2.463
			c0.282,0.277-0.03,2.61-0.03,3C0.673,5.894,0.372,8.138,0.703,8.463L0.703,8.463z"/>
	</g>
</g>
</svg>
