<?xml version="1.0" encoding="utf-8"?>
<!-- Generator: Adobe Illustrator 16.0.0, SVG Export Plug-In . SVG Version: 6.00 Build 0)  -->
<!DOCTYPE svg PUBLIC "-//W3C//DTD SVG 1.1//EN" "http://www.w3.org/Graphics/SVG/1.1/DTD/svg11.dtd">
<svg version="1.1" id="Слой_1" xmlns="http://www.w3.org/2000/svg" xmlns:xlink="http://www.w3.org/1999/xlink" x="0px" y="0px"
	 width="15.563px" height="15.438px" viewBox="0 0 15.563 15.438" enable-background="new 0 0 15.563 15.438" xml:space="preserve">
<g>
	<g>
		<g>
			<path fill="#B75053" d="M0.848,2.92c5.663,2.716,9.237,8.072,13.219,12.704c-0.477-0.555,0.551-2.423,0.055-3
				C10.14,7.993,6.565,2.637,0.902-0.079C1.258,0.092,0.454,2.732,0.848,2.92L0.848,2.92z"/>
		</g>
	</g>
	<g>
		<g>
			<path fill="#B75053" d="M12.057,1.888C8.85,5.187,6.186,8.954,3.643,12.775c-0.473,0.712,0.405,2.309-0.055,3
				c2.542-3.821,5.207-7.589,8.414-10.889C12.521,4.353,11.56,2.399,12.057,1.888L12.057,1.888z"/>
		</g>
	</g>
</g>
</svg>
