<?xml version="1.0" encoding="utf-8"?>
<!-- Generator: Adobe Illustrator 16.0.0, SVG Export Plug-In . SVG Version: 6.00 Build 0)  -->
<!DOCTYPE svg PUBLIC "-//W3C//DTD SVG 1.1//EN" "http://www.w3.org/Graphics/SVG/1.1/DTD/svg11.dtd">
<svg version="1.1" id="Слой_1" xmlns="http://www.w3.org/2000/svg" xmlns:xlink="http://www.w3.org/1999/xlink" x="0px" y="0px"
	 width="45px" height="45px" viewBox="0 0 45 45" enable-background="new 0 0 45 45" xml:space="preserve">
<g>
	<path fill-rule="evenodd" clip-rule="evenodd" fill="#272624" d="M28.271,35.223c4.754,0,9.369,0,14.074,0c0-1.597,0-3.117,0-4.914
		c-3.148,0-6.304,0-9.615,0c0-8.11,0-15.95,0-23.907c-1.565,0-2.971,0-4.459,0C28.271,16.027,28.271,25.542,28.271,35.223z"/>
	<path fill-rule="evenodd" clip-rule="evenodd" fill="#272624" d="M11.788,34.831c1.485,0,2.801,0,4.215,0
		c0-9.595,0-19.119,0-28.783c-4.452,0-8.898,0-13.414,0c0,1.581,0,3.107,0,4.824c3.025,0,6.027,0,9.198,0
		C11.788,18.949,11.788,26.846,11.788,34.831z"/>
	<g>
		<path fill="#272624" d="M19.261,1.701c-1.465,2.396-2.176,5.061-2.326,8.286c-0.216,4.657,1.161,8.392,2.479,12.437
			c1.329,4.073,1.178,7.875,0.116,12.051c-0.844,3.319-2.179,6.271-3.206,9.459c0.135-0.418,0.963-1.13,1.185-1.817
			c1.821-5.653,4.868-11.477,3.978-18.105c-0.495-3.688-2.227-6.805-2.958-10.396c-0.403-1.977-0.465-4.106-0.371-6.152
			c0.078-1.694,0.404-4.271,1.221-5.606c0.04-0.063,0.607-0.951,0.539-1.042C19.85,0.724,19.3,1.636,19.261,1.701L19.261,1.701z"/>
	</g>
	<g>
		<path fill="#272624" d="M21.922,1.701c-1.466,2.396-2.176,5.061-2.326,8.286c-0.217,4.657,1.16,8.392,2.48,12.437
			c1.329,4.073,1.177,7.875,0.116,12.051c-0.845,3.319-2.18,6.271-3.206,9.459c0.134-0.418,0.963-1.13,1.184-1.817
			c1.821-5.653,4.867-11.477,3.978-18.105c-0.495-3.688-2.227-6.805-2.958-10.396c-0.403-1.977-0.465-4.106-0.37-6.152
			c0.078-1.694,0.404-4.271,1.22-5.606c0.04-0.063,0.607-0.951,0.539-1.042S21.96,1.636,21.922,1.701L21.922,1.701z"/>
	</g>
	<g>
		<path fill="#272624" d="M24.582,1.65c-1.466,2.396-2.176,5.062-2.326,8.287c-0.217,4.657,1.16,8.392,2.48,12.437
			c1.328,4.074,1.178,7.875,0.116,12.052c-0.845,3.318-2.18,6.271-3.206,9.459c0.134-0.418,0.963-1.131,1.185-1.816
			c1.821-5.654,4.867-11.478,3.978-18.106c-0.495-3.688-2.227-6.806-2.959-10.396c-0.402-1.978-0.465-4.106-0.37-6.153
			c0.079-1.693,0.404-4.27,1.221-5.605c0.039-0.064,0.607-0.951,0.539-1.043C25.171,0.674,24.621,1.586,24.582,1.65L24.582,1.65z"/>
	</g>
</g>
</svg>
